<?xml version="1.0" standalone="no"?>
<!DOCTYPE svg PUBLIC "-//W3C//DTD SVG 20010904//EN"
 "http://www.w3.org/TR/2001/REC-SVG-20010904/DTD/svg10.dtd">
<svg version="1.0" xmlns="http://www.w3.org/2000/svg"
 width="165.000000pt" height="165.000000pt" viewBox="0 0 165.000000 165.000000"
 preserveAspectRatio="xMidYMid meet">
<metadata>
Created by potrace 1.11, written by Peter Selinger 2001-2013
</metadata>
<g transform="translate(0.000000,165.000000) scale(0.100000,-0.100000)"
fill="#000000" stroke="none">
<path d="M279 1476 c-56 -20 -96 -53 -126 -104 l-28 -47 -3 -508 c-2 -326 1
-521 8 -546 17 -63 65 -120 125 -147 l53 -25 539 3 540 3 49 30 c30 19 60 49
79 79 l30 49 0 531 c0 588 3 556 -66 625 -69 69 -38 66 -629 68 -420 2 -543 0
-571 -11z m1050 -182 c21 -26 21 -36 21 -496 0 -468 -2 -499 -34 -520 -14 -10
-948 -10 -962 0 -32 21 -34 52 -34 520 0 460 0 470 21 496 l20 26 474 0 474 0
20 -26z"/>
</g>
</svg>
